# xmcd
# 
# Track frame offsets:
#     150
#     13647
#     28868
#     51660
#     64732
#     86260
#     105707
#     120399
#     139226
#     158224
#     173381
#     193177
# 
# Disc length: 2837
# 
# Revision: 1
# Processed by: cddbd v1.5.2PL0 Copyright (c) Steve Scherf et al.
# Submitted via: fre:ac v1.0.27
# 
DISCID=9d0b130c
DTITLE=Jeff Black - Tin Lily
DYEAR=2005
DGENRE=Country-influenced Rock
TTITLE0=Easy On Me
TTITLE1=Hollow Of Your Hand
TTITLE2=Nineteen
TTITLE3=Libertine
TTITLE4=Free At Last
TTITLE5=Hard Way Out
TTITLE6=Closer
TTITLE7=All Days Shine
TTITLE8=Heaven Now
TTITLE9=These Days
TTITLE10=How Long
TTITLE11=A Better Way
EXTD=
EXTT0=
EXTT1=
EXTT2=
EXTT3=
EXTT4=
EXTT5=
EXTT6=
EXTT7=
EXTT8=
EXTT9=
EXTT10=
EXTT11=
PLAYORDER=
